<?xml version="1.0" encoding="utf-8"?>
<!-- Generator: Adobe Illustrator 22.0.1, SVG Export Plug-In . SVG Version: 6.00 Build 0)  -->
<svg version="1.1" id="Layer_1" xmlns="http://www.w3.org/2000/svg" xmlns:xlink="http://www.w3.org/1999/xlink" x="0px" y="0px"
	 viewBox="0 0 500 500" style="enable-background:new 0 0 500 500;" xml:space="preserve">
<style type="text/css">
	.st0{fill:#FFC72C;}
	.st1{fill:#FFFFFF;}
	.st2{fill:#373838;}
</style>
<rect x="-3" y="0" class="st0" width="510" height="507"/>
<g>
	<g>
		<g>
			<path class="st1" d="M262.15,369.6c-24.52,0-49.74-6.14-72.55-11.7c-3.1-0.76-6.18-1.51-9.22-2.23
				c-35.02-8.37-69.82-19.1-103.44-31.88c-30.08-11.44-42.89-33.81-39.17-68.4c2.34-21.44,14.08-30.2,24.05-35.44l0,0
				c4.96-2.61,10.27-4.7,15.89-6.92c5.4-2.14,10.99-4.34,16.4-7.09c14.2-7.21,27.25-17.74,38.8-31.29c2.33-2.73,4.61-5.64,6.82-8.45
				c4.76-6.07,9.69-12.34,15.64-17.62c32.96-29.26,107.37-7.46,121.95-2.8c41.21,13.19,77.88,38.47,103.27,71.18
				c4.95,6.37,11.05,14.96,14.4,24.84c6.52,19.23,5.93,50.22-1.36,72.09c-7.68,23.03-31.66,31.22-49.17,37.2
				c-19.75,6.74-40.88,13.62-62.88,17.07C275.2,369.16,268.7,369.6,262.15,369.6z M206.73,139.62c-19.24,0-36.5,3.73-47.4,13.41
				c-5.55,4.93-10.1,10.72-14.91,16.85c-2.24,2.86-4.56,5.81-6.97,8.63c-12.06,14.15-25.73,25.17-40.63,32.74
				c-5.66,2.88-11.38,5.14-16.91,7.32c-5.46,2.16-10.63,4.2-15.31,6.66l0,0c-9.66,5.08-18.88,12.32-20.9,30.8
				c-3.44,31.94,7.79,51.7,35.36,62.18c33.38,12.7,67.94,23.35,102.71,31.66c3.05,0.73,6.13,1.48,9.24,2.24
				c29.74,7.25,60.5,14.74,89.64,10.16c21.53-3.38,42.37-10.17,61.88-16.83c20.39-6.96,39.21-14.76,45.44-33.44
				c6.93-20.78,7.52-50.14,1.37-68.29c-3.06-9.04-8.81-17.09-13.47-23.09c-24.66-31.77-60.3-56.33-100.37-69.16
				C254.57,144.76,229.29,139.62,206.73,139.62z"/>
		</g>
		<g>
			<path class="st1" d="M242.31,404.1c-29.2,0-59.81-4.61-91.54-13.82c-12.32-3.57-23.16-6.48-33.65-9.28
				c-14.18-3.8-27.58-7.38-43.38-12.27c-23.58-7.3-47.86-16.27-62.99-38.46c-16.36-23.99-20.01-62.76-8.68-92.19
				c1.51-3.93,3.27-7.69,5.24-11.19l0,0c11.63-20.67,29.07-30.73,47.55-41.38c10.76-6.2,21.89-12.62,31.99-21.41
				c7.49-6.52,13.91-13.53,20.11-20.32c12.78-13.96,24.85-27.14,44.51-34.95c35.72-14.19,79.18-16.75,125.69-7.42
				c42,8.43,83.39,26.03,116.55,49.55c5.81,4.12,11.53,7.99,17.06,11.73c16.6,11.22,32.28,21.83,47.43,37.16
				c2.44,2.47,5.39,5.26,8.52,8.22c15.05,14.23,35.65,33.72,37.59,53.53c1.86,19.03-9.14,40.31-31.81,61.53
				c-19.37,18.13-42.67,32.12-58.03,39.18c-33.91,15.58-71.33,24.78-107.53,33.68l-3.8,0.94
				C283.66,401.71,263.35,404.1,242.31,404.1z M223.87,103.85c-25.27,0-48.76,4.14-69.47,12.36c-17.97,7.14-29.44,19.67-41.58,32.93
				c-6.36,6.94-12.93,14.13-20.76,20.94c-10.68,9.3-22.15,15.92-33.24,22.31c-17.5,10.09-34.03,19.62-44.59,38.39l0,0
				c-1.78,3.17-3.38,6.58-4.75,10.15c-10.3,26.73-6.93,63.21,7.83,84.85c13.69,20.07,36.54,28.47,58.77,35.35
				c15.66,4.85,28.98,8.41,43.09,12.18c10.53,2.82,21.42,5.73,33.81,9.33c53.25,15.45,103.12,17.65,148.24,6.55l3.81-0.94
				c35.83-8.81,72.88-17.92,106.1-33.18c29.45-13.53,89.03-54,85.24-92.71c-1.65-16.85-21.01-35.16-35.14-48.52
				c-3.18-3-6.17-5.84-8.71-8.41c-14.59-14.77-29.96-25.16-46.22-36.16c-5.57-3.77-11.33-7.66-17.21-11.83
				c-32.27-22.89-72.59-40.02-113.51-48.24C257.77,105.63,240.43,103.85,223.87,103.85z"/>
		</g>
		<g>
			<path class="st1" d="M284.05,326.27c-7.82,0-16.39-0.93-26.13-2.79c-1.67-0.32-3.34-0.66-5.01-1c-6.41-1.3-12.47-2.53-18.64-2.76
				c-7.54-0.28-14.99,0.94-22.86,2.23c-6.97,1.14-14.18,2.32-21.45,2.36c-15.03,0.02-33.56-6.54-41.03-25.26
				c-2.71-6.8-3.82-14.98-3.31-24.32c1.1-19.97,9.43-39.13,22.28-51.27c27.03-25.55,65.73-29.64,115.02-12.18
				c18.2,6.45,37.02,13.12,53.67,25.84c4.25,3.24,9,7.38,12.04,13.49c5.77,11.58,3.26,26.35-1.01,36.31
				c-7.42,17.32-22.05,30.44-40.12,36.01C300.23,325.15,292.6,326.27,284.05,326.27z M232.09,313.25c0.8,0,1.6,0.01,2.41,0.04
				c6.7,0.25,13.3,1.59,19.68,2.88c1.65,0.33,3.3,0.67,4.94,0.98c19.3,3.69,33.63,3.57,46.47-0.38
				c16.27-5.01,29.43-16.82,36.1-32.39c3.7-8.64,5.95-21.29,1.16-30.91c-2.45-4.93-6.53-8.45-10.19-11.25
				c-15.84-12.11-34.18-18.6-51.91-24.89c-46.83-16.59-83.32-12.96-108.46,10.79c-11.68,11.04-19.26,28.59-20.27,46.95
				c-0.46,8.4,0.5,15.66,2.86,21.59c6.24,15.64,22.05,21.21,34.84,21.21c0.06,0,0.13,0,0.19,0c6.75-0.03,13.71-1.17,20.44-2.27
				C217.43,314.45,224.72,313.25,232.09,313.25z"/>
		</g>
	</g>
	<g>
		<path class="st2" d="M78.71,296.88c-4.87-1.28-8.83-2.98-11.88-5.12l5.94-13.34c2.86,1.89,6.18,3.41,9.96,4.57
			c3.78,1.16,7.49,1.74,11.15,1.74c6.94,0,10.41-1.74,10.41-5.21c0-1.83-0.99-3.18-2.97-4.07c-1.98-0.88-5.16-1.81-9.55-2.79
			c-4.81-1.03-8.83-2.15-12.06-3.33c-3.23-1.19-6-3.09-8.32-5.71c-2.31-2.62-3.47-6.15-3.47-10.6c0-3.9,1.06-7.41,3.2-10.55
			c2.13-3.13,5.31-5.62,9.55-7.45s9.43-2.74,15.58-2.74c4.2,0,8.34,0.47,12.42,1.42c4.08,0.94,7.67,2.33,10.78,4.16l-5.57,13.43
			c-6.09-3.29-12-4.93-17.72-4.93c-3.6,0-6.21,0.53-7.86,1.6c-1.65,1.06-2.47,2.45-2.47,4.16s0.97,2.98,2.92,3.84
			c1.95,0.85,5.08,1.74,9.41,2.65c4.87,1.04,8.91,2.15,12.11,3.34c3.2,1.19,5.97,3.07,8.31,5.66c2.34,2.59,3.52,6.11,3.52,10.55
			c0,3.84-1.07,7.31-3.2,10.41s-5.33,5.59-9.59,7.45c-4.26,1.86-9.44,2.79-15.53,2.79C88.61,298.8,83.59,298.16,78.71,296.88z"/>
		<path class="st2" d="M145.4,247.91h-19.64v-14.34h57.28v14.34h-19.55v49.61H145.4V247.91z"/>
		<path class="st2" d="M220.04,280.53h-9.87v16.99h-18.09v-63.95h29.24c5.78,0,10.81,0.96,15.07,2.88c4.26,1.92,7.55,4.66,9.87,8.22
			s3.47,7.75,3.47,12.56c0,4.63-1.08,8.66-3.24,12.11c-2.16,3.44-5.25,6.14-9.27,8.08l13.8,20.1h-19.37L220.04,280.53z
			 M228.63,250.29c-1.89-1.64-4.69-2.47-8.41-2.47h-10.05v18.73h10.05c3.72,0,6.52-0.81,8.41-2.42c1.89-1.61,2.83-3.91,2.83-6.9
			C231.46,254.25,230.52,251.93,228.63,250.29z"/>
		<path class="st2" d="M304.82,285.1h-27.04l-5.03,12.42H254.3l28.23-63.95h17.82l28.32,63.95h-18.82L304.82,285.1z M299.52,271.76
			l-8.22-20.46l-8.22,20.46H299.52z"/>
		<path class="st2" d="M339.14,247.91H319.5v-14.34h57.28v14.34h-19.55v49.61h-18.09V247.91z"/>
		<path class="st2" d="M385.82,233.57h18.09v63.95h-18.09V233.57z"/>
		<path class="st2" d="M426.48,296.88c-4.87-1.28-8.83-2.98-11.88-5.12l5.94-13.34c2.86,1.89,6.18,3.41,9.96,4.57
			c3.78,1.16,7.49,1.74,11.15,1.74c6.94,0,10.41-1.74,10.41-5.21c0-1.83-0.99-3.18-2.97-4.07c-1.98-0.88-5.16-1.81-9.55-2.79
			c-4.81-1.03-8.83-2.15-12.06-3.33c-3.23-1.19-6-3.09-8.32-5.71c-2.31-2.62-3.47-6.15-3.47-10.6c0-3.9,1.06-7.41,3.2-10.55
			c2.13-3.13,5.31-5.62,9.55-7.45s9.43-2.74,15.58-2.74c4.2,0,8.34,0.47,12.42,1.42c4.08,0.94,7.67,2.33,10.78,4.16l-5.57,13.43
			c-6.09-3.29-12-4.93-17.72-4.93c-3.6,0-6.21,0.53-7.86,1.6c-1.65,1.06-2.47,2.45-2.47,4.16s0.97,2.98,2.92,3.84
			c1.95,0.85,5.08,1.74,9.41,2.65c4.87,1.04,8.91,2.15,12.11,3.34c3.2,1.19,5.97,3.07,8.31,5.66c2.34,2.59,3.52,6.11,3.52,10.55
			c0,3.84-1.07,7.31-3.2,10.41s-5.33,5.59-9.59,7.45c-4.26,1.86-9.44,2.79-15.53,2.79C436.37,298.8,431.35,298.16,426.48,296.88z"/>
	</g>
</g>
<rect x="-533" y="0" class="st2" width="510" height="507"/>
<g>
	<g>
		<path class="st0" d="M-267.85,369.6c-24.52,0-49.74-6.14-72.55-11.7c-3.1-0.76-6.18-1.51-9.22-2.23
			c-35.02-8.37-69.82-19.1-103.44-31.88c-30.08-11.44-42.89-33.81-39.17-68.4c2.34-21.44,14.08-30.2,24.05-35.44l0,0
			c4.96-2.61,10.27-4.7,15.89-6.92c5.4-2.14,10.99-4.34,16.4-7.09c14.2-7.21,27.25-17.74,38.8-31.29c2.33-2.73,4.61-5.64,6.82-8.45
			c4.76-6.07,9.69-12.34,15.64-17.62c32.96-29.26,107.37-7.46,121.95-2.8c41.21,13.19,77.88,38.47,103.27,71.18
			c4.95,6.37,11.05,14.96,14.4,24.84c6.52,19.23,5.93,50.22-1.36,72.09c-7.68,23.03-31.66,31.22-49.17,37.2
			c-19.75,6.74-40.88,13.62-62.88,17.07C-254.8,369.16-261.3,369.6-267.85,369.6z M-323.27,139.62c-19.24,0-36.5,3.73-47.4,13.41
			c-5.55,4.93-10.1,10.72-14.91,16.85c-2.24,2.86-4.56,5.81-6.97,8.63c-12.06,14.15-25.73,25.17-40.63,32.74
			c-5.66,2.88-11.38,5.14-16.91,7.32c-5.46,2.16-10.63,4.2-15.31,6.66l0,0c-9.66,5.08-18.88,12.32-20.9,30.8
			c-3.44,31.94,7.79,51.7,35.36,62.18c33.38,12.7,67.94,23.35,102.71,31.66c3.05,0.73,6.13,1.48,9.24,2.24
			c29.74,7.25,60.5,14.74,89.64,10.16c21.53-3.38,42.37-10.17,61.88-16.83c20.39-6.96,39.21-14.76,45.44-33.44
			c6.93-20.78,7.52-50.14,1.37-68.29c-3.06-9.04-8.81-17.09-13.47-23.09c-24.66-31.77-60.3-56.33-100.37-69.16
			C-275.43,144.76-300.71,139.62-323.27,139.62z"/>
		<path class="st0" d="M-287.69,404.1c-29.2,0-59.81-4.61-91.54-13.82c-12.32-3.57-23.16-6.48-33.65-9.28
			c-14.18-3.8-27.58-7.38-43.38-12.27c-23.58-7.3-47.86-16.27-62.99-38.46c-16.36-23.99-20.01-62.76-8.68-92.19
			c1.51-3.93,3.27-7.69,5.24-11.19l0,0c11.63-20.67,29.07-30.73,47.55-41.38c10.76-6.2,21.89-12.62,31.99-21.41
			c7.49-6.52,13.91-13.53,20.11-20.32c12.78-13.96,24.85-27.14,44.51-34.95c35.72-14.19,79.18-16.75,125.69-7.42
			c42,8.43,83.39,26.03,116.55,49.55c5.81,4.12,11.53,7.99,17.06,11.73c16.6,11.22,32.28,21.83,47.43,37.16
			c2.44,2.47,5.39,5.26,8.52,8.22c15.05,14.23,35.65,33.72,37.59,53.53c1.86,19.03-9.14,40.31-31.81,61.53
			c-19.37,18.13-42.67,32.12-58.03,39.18c-33.91,15.58-71.33,24.78-107.53,33.68l-3.8,0.94
			C-246.34,401.71-266.65,404.1-287.69,404.1z M-306.13,103.85c-25.27,0-48.76,4.14-69.47,12.36
			c-17.97,7.14-29.44,19.67-41.58,32.93c-6.36,6.94-12.93,14.13-20.76,20.94c-10.68,9.3-22.15,15.92-33.24,22.31
			c-17.5,10.09-34.03,19.62-44.59,38.39l0,0c-1.78,3.17-3.38,6.58-4.75,10.15c-10.3,26.73-6.93,63.21,7.83,84.85
			c13.69,20.07,36.54,28.47,58.77,35.35c15.66,4.85,28.98,8.41,43.09,12.18c10.53,2.82,21.42,5.73,33.81,9.33
			c53.25,15.45,103.12,17.65,148.24,6.55l3.81-0.94c35.83-8.81,72.88-17.92,106.1-33.18c29.45-13.53,89.03-54,85.24-92.71
			c-1.65-16.85-21.01-35.16-35.14-48.52c-3.18-3-6.17-5.84-8.71-8.41c-14.59-14.77-29.96-25.16-46.22-36.16
			c-5.57-3.77-11.33-7.66-17.21-11.83c-32.27-22.89-72.59-40.02-113.51-48.24C-272.23,105.63-289.57,103.85-306.13,103.85z"/>
		<path class="st0" d="M-245.95,326.27c-7.82,0-16.39-0.93-26.13-2.79c-1.67-0.32-3.34-0.66-5.01-1c-6.41-1.3-12.47-2.53-18.64-2.76
			c-7.54-0.28-14.99,0.94-22.86,2.23c-6.97,1.14-14.18,2.32-21.45,2.36c-15.03,0.02-33.56-6.54-41.03-25.26
			c-2.71-6.8-3.82-14.98-3.31-24.32c1.1-19.97,9.43-39.13,22.28-51.27c27.03-25.55,65.73-29.64,115.02-12.18
			c18.2,6.45,37.02,13.12,53.67,25.84c4.25,3.24,9,7.38,12.04,13.49c5.77,11.58,3.26,26.35-1.01,36.31
			c-7.42,17.32-22.05,30.44-40.12,36.01C-229.77,325.15-237.4,326.27-245.95,326.27z M-297.91,313.25c0.8,0,1.6,0.01,2.41,0.04
			c6.7,0.25,13.3,1.59,19.68,2.88c1.65,0.33,3.3,0.67,4.94,0.98c19.3,3.69,33.63,3.57,46.47-0.38c16.27-5.01,29.43-16.82,36.1-32.39
			c3.7-8.64,5.95-21.29,1.16-30.91c-2.45-4.93-6.53-8.45-10.19-11.25c-15.84-12.11-34.18-18.6-51.91-24.89
			c-46.83-16.59-83.32-12.96-108.46,10.79c-11.68,11.04-19.26,28.59-20.27,46.95c-0.46,8.4,0.5,15.66,2.86,21.59
			c6.24,15.64,22.05,21.21,34.84,21.21c0.06,0,0.13,0,0.19,0c6.75-0.03,13.71-1.17,20.44-2.27
			C-312.57,314.45-305.28,313.25-297.91,313.25z"/>
	</g>
	<g>
		<g>
			<path class="st1" d="M-451.29,296.88c-4.87-1.28-8.83-2.98-11.88-5.12l5.94-13.34c2.86,1.89,6.18,3.41,9.96,4.57
				c3.78,1.16,7.49,1.74,11.15,1.74c6.94,0,10.41-1.74,10.41-5.21c0-1.83-0.99-3.18-2.97-4.07c-1.98-0.88-5.16-1.81-9.55-2.79
				c-4.81-1.03-8.83-2.15-12.06-3.33c-3.23-1.19-6-3.09-8.32-5.71c-2.31-2.62-3.47-6.15-3.47-10.6c0-3.9,1.06-7.41,3.2-10.55
				c2.13-3.13,5.31-5.62,9.55-7.45c4.23-1.83,9.43-2.74,15.58-2.74c4.2,0,8.34,0.47,12.42,1.42c4.08,0.94,7.67,2.33,10.78,4.16
				l-5.57,13.43c-6.09-3.29-12-4.93-17.72-4.93c-3.6,0-6.21,0.53-7.86,1.6c-1.65,1.06-2.47,2.45-2.47,4.16s0.97,2.98,2.92,3.84
				c1.95,0.85,5.08,1.74,9.41,2.65c4.87,1.04,8.91,2.15,12.11,3.34c3.2,1.19,5.97,3.07,8.31,5.66c2.34,2.59,3.52,6.11,3.52,10.55
				c0,3.84-1.07,7.31-3.2,10.41s-5.33,5.59-9.59,7.45c-4.26,1.86-9.44,2.79-15.53,2.79C-441.39,298.8-446.41,298.16-451.29,296.88z"
				/>
		</g>
		<g>
			<path class="st1" d="M-384.6,247.91h-19.64v-14.34h57.28v14.34h-19.55v49.61h-18.09V247.91z"/>
		</g>
		<g>
			<path class="st1" d="M-309.96,280.53h-9.87v16.99h-18.09v-63.95h29.24c5.78,0,10.81,0.96,15.07,2.88
				c4.26,1.92,7.55,4.66,9.87,8.22c2.31,3.56,3.47,7.75,3.47,12.56c0,4.63-1.08,8.66-3.24,12.11c-2.16,3.44-5.25,6.14-9.27,8.08
				l13.8,20.1h-19.37L-309.96,280.53z M-301.37,250.29c-1.89-1.64-4.69-2.47-8.41-2.47h-10.05v18.73h10.05
				c3.72,0,6.52-0.81,8.41-2.42c1.89-1.61,2.83-3.91,2.83-6.9C-298.54,254.25-299.48,251.93-301.37,250.29z"/>
		</g>
		<g>
			<path class="st1" d="M-225.18,285.1h-27.04l-5.03,12.42h-18.45l28.23-63.95h17.82l28.32,63.95h-18.82L-225.18,285.1z
				 M-230.48,271.76l-8.22-20.46l-8.22,20.46H-230.48z"/>
		</g>
		<g>
			<path class="st1" d="M-190.86,247.91h-19.64v-14.34h57.28v14.34h-19.55v49.61h-18.09V247.91z"/>
		</g>
		<g>
			<path class="st1" d="M-144.18,233.57h18.09v63.95h-18.09V233.57z"/>
		</g>
		<g>
			<path class="st1" d="M-103.52,296.88c-4.87-1.28-8.83-2.98-11.88-5.12l5.94-13.34c2.86,1.89,6.18,3.41,9.96,4.57
				c3.78,1.16,7.49,1.74,11.15,1.74c6.94,0,10.41-1.74,10.41-5.21c0-1.83-0.99-3.18-2.97-4.07c-1.98-0.88-5.16-1.81-9.55-2.79
				c-4.81-1.03-8.83-2.15-12.06-3.33c-3.23-1.19-6-3.09-8.32-5.71c-2.31-2.62-3.47-6.15-3.47-10.6c0-3.9,1.06-7.41,3.2-10.55
				c2.13-3.13,5.31-5.62,9.55-7.45s9.43-2.74,15.58-2.74c4.2,0,8.34,0.47,12.42,1.42c4.08,0.94,7.67,2.33,10.78,4.16l-5.57,13.43
				c-6.09-3.29-12-4.93-17.72-4.93c-3.6,0-6.21,0.53-7.86,1.6c-1.65,1.06-2.47,2.45-2.47,4.16s0.97,2.98,2.92,3.84
				c1.95,0.85,5.08,1.74,9.41,2.65c4.87,1.04,8.91,2.15,12.11,3.34c3.2,1.19,5.97,3.07,8.31,5.66c2.34,2.59,3.52,6.11,3.52,10.55
				c0,3.84-1.07,7.31-3.2,10.41s-5.33,5.59-9.59,7.45c-4.26,1.86-9.44,2.79-15.53,2.79C-93.63,298.8-98.65,298.16-103.52,296.88z"/>
		</g>
	</g>
</g>
</svg>
