<?xml version="1.0" encoding="utf-8"?>
<!-- Generator: Adobe Illustrator 22.0.1, SVG Export Plug-In . SVG Version: 6.00 Build 0)  -->
<svg version="1.1" id="Layer_1" xmlns="http://www.w3.org/2000/svg" xmlns:xlink="http://www.w3.org/1999/xlink" x="0px" y="0px"
	 viewBox="0 0 16 16" style="enable-background:new 0 0 16 16;" xml:space="preserve">
<style type="text/css">
	.st0{fill:#FDC82F;}
	.st1{fill:#373737;}
</style>
<rect x="0" class="st0" width="16" height="16"/>
<g>
	<path class="st1" d="M5.38,13.2c-0.81-0.21-1.47-0.5-1.97-0.85l0.99-2.21c0.48,0.31,1.03,0.57,1.65,0.76
		c0.63,0.19,1.24,0.29,1.85,0.29c1.15,0,1.73-0.29,1.73-0.86c0-0.3-0.16-0.53-0.49-0.68C8.81,9.5,8.28,9.34,7.55,9.18
		c-0.8-0.17-1.47-0.36-2-0.55c-0.54-0.2-1-0.51-1.38-0.95C3.79,7.25,3.59,6.66,3.59,5.92c0-0.65,0.18-1.23,0.53-1.75
		c0.35-0.52,0.88-0.93,1.58-1.24S7.27,2.48,8.3,2.48c0.7,0,1.38,0.08,2.06,0.24c0.68,0.16,1.27,0.39,1.79,0.69l-0.93,2.23
		c-1.01-0.55-1.99-0.82-2.94-0.82c-0.6,0-1.03,0.09-1.3,0.27C6.7,5.26,6.57,5.49,6.57,5.77s0.16,0.5,0.49,0.64
		C7.38,6.55,7.9,6.7,8.61,6.85c0.81,0.17,1.48,0.36,2.01,0.55c0.53,0.2,0.99,0.51,1.38,0.94c0.39,0.43,0.58,1.01,0.58,1.75
		c0,0.64-0.18,1.21-0.53,1.73c-0.35,0.52-0.88,0.93-1.59,1.24c-0.71,0.31-1.57,0.46-2.58,0.46C7.03,13.52,6.19,13.41,5.38,13.2z"/>
</g>
</svg>
