<?xml version="1.0" encoding="utf-8"?>
<!-- Generator: Adobe Illustrator 22.0.1, SVG Export Plug-In . SVG Version: 6.00 Build 0)  -->
<svg version="1.1" id="Layer_1" xmlns="http://www.w3.org/2000/svg" xmlns:xlink="http://www.w3.org/1999/xlink" x="0px" y="0px"
	 viewBox="0 0 216 144" style="enable-background:new 0 0 216 144;" xml:space="preserve">
<style type="text/css">
	.st0{fill:#FFFFFF;}
	.st1{fill:#373838;}
</style>
<g>
	<g>
		<path class="st0" d="M111.87,110.06c-7.8,0-15.83-1.95-23.09-3.72c-0.99-0.24-1.97-0.48-2.93-0.71
			c-11.14-2.66-22.22-6.08-32.92-10.15c-9.57-3.64-13.65-10.76-12.46-21.77c0.75-6.82,4.48-9.61,7.65-11.28l0,0
			c1.58-0.83,3.27-1.5,5.06-2.2c1.72-0.68,3.5-1.38,5.22-2.26c4.52-2.3,8.67-5.65,12.35-9.96c0.74-0.87,1.47-1.79,2.17-2.69
			c1.52-1.93,3.08-3.93,4.98-5.61c10.49-9.31,34.17-2.38,38.81-0.89c13.11,4.2,24.78,12.24,32.86,22.65
			c1.57,2.03,3.52,4.76,4.58,7.9c2.07,6.12,1.89,15.98-0.43,22.94c-2.44,7.33-10.07,9.94-15.65,11.84
			c-6.28,2.15-13.01,4.33-20.01,5.43C116.02,109.92,113.95,110.06,111.87,110.06z M94.23,36.88c-6.12,0-11.61,1.19-15.08,4.27
			c-1.77,1.57-3.21,3.41-4.74,5.36c-0.71,0.91-1.45,1.85-2.22,2.75c-3.84,4.5-8.19,8.01-12.93,10.42c-1.8,0.92-3.62,1.63-5.38,2.33
			c-1.74,0.69-3.38,1.34-4.87,2.12l0,0c-3.07,1.62-6.01,3.92-6.65,9.8c-1.1,10.16,2.48,16.45,11.25,19.79
			c10.62,4.04,21.62,7.43,32.68,10.07c0.97,0.23,1.95,0.47,2.94,0.71c9.46,2.31,19.25,4.69,28.53,3.23
			c6.85-1.08,13.48-3.24,19.69-5.36c6.49-2.22,12.48-4.7,14.46-10.64c2.21-6.61,2.39-15.96,0.44-21.73
			c-0.97-2.88-2.8-5.44-4.29-7.35c-7.85-10.11-19.19-17.93-31.94-22.01C109.46,38.51,101.41,36.88,94.23,36.88z"/>
		<path class="st0" d="M105.55,121.04c-9.29,0-19.03-1.47-29.13-4.4c-3.92-1.14-7.37-2.06-10.71-2.95
			c-4.51-1.21-8.78-2.35-13.81-3.9c-7.5-2.32-15.23-5.18-20.05-12.24c-5.21-7.63-6.37-19.97-2.76-29.34
			c0.48-1.25,1.04-2.45,1.67-3.56l0,0c3.7-6.58,9.25-9.78,15.13-13.17c3.42-1.97,6.97-4.02,10.18-6.81c2.38-2.08,4.43-4.31,6.4-6.47
			c4.07-4.44,7.91-8.64,14.16-11.12c11.37-4.52,25.2-5.33,39.99-2.36C130,27.4,143.17,33,153.73,40.48
			c1.85,1.31,3.67,2.54,5.43,3.73c5.28,3.57,10.27,6.95,15.09,11.82c0.78,0.79,1.72,1.67,2.71,2.61
			c4.79,4.53,11.35,10.73,11.96,17.03c0.59,6.06-2.91,12.83-10.12,19.58c-6.16,5.77-13.58,10.22-18.46,12.47
			c-10.79,4.96-22.7,7.89-34.22,10.72l-1.21,0.3C118.71,120.28,112.25,121.04,105.55,121.04z M99.68,25.49
			c-8.04,0-15.52,1.32-22.11,3.93c-5.72,2.27-9.37,6.26-13.23,10.48c-2.02,2.21-4.12,4.5-6.61,6.66c-3.4,2.96-7.05,5.06-10.58,7.1
			c-5.57,3.21-10.83,6.24-14.19,12.22l0,0c-0.57,1.01-1.08,2.09-1.51,3.23c-3.28,8.51-2.2,20.11,2.49,27
			c4.36,6.39,11.63,9.06,18.7,11.25c4.98,1.54,9.22,2.68,13.71,3.88c3.35,0.9,6.82,1.82,10.76,2.97
			c16.94,4.92,32.82,5.62,47.17,2.08l1.21-0.3c11.4-2.8,23.19-5.7,33.76-10.56c9.37-4.31,28.33-17.18,27.12-29.5
			c-0.53-5.36-6.69-11.19-11.18-15.44c-1.01-0.96-1.96-1.86-2.77-2.68c-4.64-4.7-9.53-8.01-14.71-11.51
			c-1.77-1.2-3.61-2.44-5.48-3.77c-10.27-7.28-23.1-12.74-36.12-15.35C110.47,26.06,104.96,25.49,99.68,25.49z"/>
		<path class="st0" d="M118.84,96.27c-2.49,0-5.22-0.3-8.32-0.89c-0.53-0.1-1.06-0.21-1.6-0.32c-2.04-0.41-3.97-0.8-5.93-0.88
			c-2.4-0.09-4.77,0.3-7.28,0.71c-2.22,0.36-4.51,0.74-6.82,0.75c-4.78,0.01-10.68-2.08-13.06-8.04c-0.86-2.16-1.22-4.77-1.05-7.74
			c0.35-6.35,3-12.45,7.09-16.32c8.6-8.13,20.91-9.43,36.6-3.88c5.79,2.05,11.78,4.17,17.08,8.22c1.35,1.03,2.86,2.35,3.83,4.29
			c1.83,3.68,1.04,8.38-0.32,11.55c-2.36,5.51-7.02,9.69-12.77,11.46C123.98,95.91,121.55,96.27,118.84,96.27z M102.3,92.13
			c0.26,0,0.51,0,0.77,0.01c2.13,0.08,4.23,0.5,6.26,0.92c0.52,0.11,1.05,0.21,1.57,0.31c6.14,1.17,10.7,1.13,14.79-0.12
			c5.18-1.59,9.36-5.35,11.49-10.31c1.18-2.75,1.89-6.78,0.37-9.84c-0.78-1.57-2.08-2.69-3.24-3.58
			c-5.04-3.85-10.88-5.92-16.52-7.92c-14.9-5.28-26.52-4.12-34.51,3.43c-3.72,3.51-6.13,9.1-6.45,14.94
			c-0.15,2.67,0.16,4.98,0.91,6.87c1.99,4.98,7.02,6.75,11.08,6.75c0.02,0,0.04,0,0.06,0c2.15-0.01,4.36-0.37,6.5-0.72
			C97.64,92.51,99.96,92.13,102.3,92.13z"/>
	</g>
	<g>
		<path class="st1" d="M53.49,86.92c-1.55-0.41-2.81-0.95-3.78-1.63l1.89-4.24c0.91,0.6,1.97,1.09,3.17,1.45
			c1.2,0.37,2.38,0.55,3.55,0.55c2.21,0,3.31-0.55,3.31-1.66c0-0.58-0.31-1.01-0.94-1.29c-0.63-0.28-1.64-0.58-3.04-0.89
			c-1.53-0.33-2.81-0.68-3.84-1.06c-1.03-0.38-1.91-0.98-2.65-1.82c-0.74-0.83-1.1-1.96-1.1-3.37c0-1.24,0.34-2.36,1.02-3.36
			c0.68-1,1.69-1.79,3.04-2.37c1.35-0.58,3-0.87,4.96-0.87c1.34,0,2.65,0.15,3.95,0.45c1.3,0.3,2.44,0.74,3.43,1.32l-1.77,4.27
			c-1.94-1.05-3.82-1.57-5.64-1.57c-1.14,0-1.98,0.17-2.5,0.51c-0.52,0.34-0.78,0.78-0.78,1.32s0.31,0.95,0.93,1.22
			c0.62,0.27,1.62,0.55,2.99,0.84c1.55,0.33,2.83,0.68,3.85,1.06c1.02,0.38,1.9,0.98,2.65,1.8c0.75,0.82,1.12,1.94,1.12,3.36
			c0,1.22-0.34,2.33-1.02,3.31c-0.68,0.99-1.7,1.78-3.05,2.37c-1.36,0.59-3,0.89-4.94,0.89C56.64,87.53,55.05,87.32,53.49,86.92z"/>
		<path class="st1" d="M74.72,71.34h-6.25v-4.56h18.23v4.56h-6.22v15.79h-5.76V71.34z"/>
		<path class="st1" d="M98.47,81.71h-3.14v5.41h-5.76V66.77h9.3c1.84,0,3.44,0.31,4.8,0.92c1.36,0.61,2.4,1.48,3.14,2.62
			s1.11,2.47,1.11,4c0,1.47-0.34,2.76-1.03,3.85c-0.69,1.09-1.67,1.95-2.95,2.57l4.39,6.4h-6.16L98.47,81.71z M101.2,72.09
			c-0.6-0.52-1.49-0.78-2.67-0.78h-3.2v5.96h3.2c1.18,0,2.07-0.26,2.67-0.77c0.6-0.51,0.9-1.24,0.9-2.19
			C102.1,73.35,101.8,72.62,101.2,72.09z"/>
		<path class="st1" d="M125.45,83.17h-8.6l-1.6,3.95h-5.87l8.98-20.35h5.67l9.01,20.35h-5.99L125.45,83.17z M123.76,78.92
			l-2.62-6.51l-2.62,6.51H123.76z"/>
		<path class="st1" d="M136.37,71.34h-6.25v-4.56h18.23v4.56h-6.22v15.79h-5.76V71.34z"/>
		<path class="st1" d="M151.22,66.77h5.76v20.35h-5.76V66.77z"/>
		<path class="st1" d="M164.16,86.92c-1.55-0.41-2.81-0.95-3.78-1.63l1.89-4.24c0.91,0.6,1.97,1.09,3.17,1.45
			c1.2,0.37,2.38,0.55,3.55,0.55c2.21,0,3.31-0.55,3.31-1.66c0-0.58-0.31-1.01-0.94-1.29c-0.63-0.28-1.64-0.58-3.04-0.89
			c-1.53-0.33-2.81-0.68-3.84-1.06c-1.03-0.38-1.91-0.98-2.65-1.82c-0.74-0.83-1.1-1.96-1.1-3.37c0-1.24,0.34-2.36,1.02-3.36
			c0.68-1,1.69-1.79,3.04-2.37c1.35-0.58,3-0.87,4.96-0.87c1.34,0,2.65,0.15,3.95,0.45c1.3,0.3,2.44,0.74,3.43,1.32l-1.77,4.27
			c-1.94-1.05-3.82-1.57-5.64-1.57c-1.14,0-1.98,0.17-2.5,0.51c-0.52,0.34-0.78,0.78-0.78,1.32s0.31,0.95,0.93,1.22
			c0.62,0.27,1.62,0.55,2.99,0.84c1.55,0.33,2.83,0.68,3.85,1.06c1.02,0.38,1.9,0.98,2.65,1.8c0.75,0.82,1.12,1.94,1.12,3.36
			c0,1.22-0.34,2.33-1.02,3.31c-0.68,0.99-1.7,1.78-3.05,2.37c-1.36,0.59-3,0.89-4.94,0.89C167.31,87.53,165.71,87.32,164.16,86.92z
			"/>
	</g>
</g>
</svg>
